<svg width="36" height="36" viewBox="0 0 36 36" fill="none" xmlns="http://www.w3.org/2000/svg">
<path fill-rule="evenodd" clip-rule="evenodd" d="M13.5 28.125C13.5 28.7463 14.0037 29.25 14.625 29.25L32.625 29.25C33.2463 29.25 33.75 28.7463 33.75 28.125L33.75 7.875C33.75 7.25368 33.2463 6.75 32.625 6.75L14.625 6.75C14.0037 6.75 13.5 7.25368 13.5 7.875L13.5 12.375C13.5 12.9963 12.9963 13.5 12.375 13.5C11.7537 13.5 11.25 12.9963 11.25 12.375L11.25 7.875C11.25 6.01104 12.761 4.5 14.625 4.5L32.625 4.5C34.489 4.5 36 6.01104 36 7.875L36 28.125C36 29.989 34.489 31.5 32.625 31.5L14.625 31.5C12.761 31.5 11.25 29.989 11.25 28.125L11.25 23.625C11.25 23.0037 11.7537 22.5 12.375 22.5C12.9963 22.5 13.5 23.0037 13.5 23.625L13.5 28.125Z" fill="black"/>
<path fill-rule="evenodd" clip-rule="evenodd" d="M0.329505 18.7955C-0.109835 18.3562 -0.109835 17.6438 0.329504 17.2045L7.0795 10.4545C7.51884 10.0152 8.23115 10.0152 8.67049 10.4545C9.10983 10.8938 9.10983 11.6062 8.67049 12.0455L3.84099 16.875L23.625 16.875C24.2463 16.875 24.75 17.3787 24.75 18C24.75 18.6213 24.2463 19.125 23.625 19.125L3.84099 19.125L8.67049 23.9545C9.10983 24.3938 9.10983 25.1062 8.6705 25.5455C8.23116 25.9848 7.51884 25.9848 7.0795 25.5455L0.329505 18.7955Z" fill="black"/>
</svg>
