<svg width="389" height="292" viewBox="0 0 389 292" fill="none" xmlns="http://www.w3.org/2000/svg">
<g filter="url(#filter0_d_53_2)">
<rect x="4" width="381" height="284" rx="20" fill="white"/>
<path fill-rule="evenodd" clip-rule="evenodd" d="M194 76.5C195.726 76.5 197.125 77.8991 197.125 79.625V110.875H228.375C230.101 110.875 231.5 112.274 231.5 114C231.5 115.726 230.101 117.125 228.375 117.125H197.125V148.375C197.125 150.101 195.726 151.5 194 151.5C192.274 151.5 190.875 150.101 190.875 148.375V117.125H159.625C157.899 117.125 156.5 115.726 156.5 114C156.5 112.274 157.899 110.875 159.625 110.875H190.875V79.625C190.875 77.8991 192.274 76.5 194 76.5Z" fill="#3B32C0"/>
<rect x="144.5" y="64.5" width="99" height="99" rx="49.5" stroke="#3B32C0" stroke-dasharray="2 2"/>
<path d="M126.657 193.5H124.279C124.139 192.816 123.892 192.215 123.541 191.697C123.196 191.18 122.774 190.745 122.275 190.393C121.783 190.036 121.237 189.767 120.636 189.588C120.035 189.409 119.408 189.32 118.756 189.32C117.568 189.32 116.49 189.62 115.525 190.221C114.566 190.822 113.803 191.707 113.234 192.877C112.671 194.047 112.39 195.482 112.39 197.182C112.39 198.882 112.671 200.317 113.234 201.487C113.803 202.657 114.566 203.542 115.525 204.143C116.49 204.744 117.568 205.044 118.756 205.044C119.408 205.044 120.035 204.955 120.636 204.776C121.237 204.597 121.783 204.331 122.275 203.98C122.774 203.622 123.196 203.184 123.541 202.666C123.892 202.142 124.139 201.541 124.279 200.864H126.657C126.478 201.867 126.152 202.765 125.679 203.558C125.206 204.35 124.618 205.025 123.915 205.581C123.212 206.131 122.422 206.549 121.547 206.837C120.677 207.125 119.747 207.268 118.756 207.268C117.082 207.268 115.592 206.859 114.288 206.041C112.984 205.223 111.958 204.06 111.211 202.551C110.463 201.043 110.089 199.253 110.089 197.182C110.089 195.111 110.463 193.321 111.211 191.812C111.958 190.304 112.984 189.141 114.288 188.322C115.592 187.504 117.082 187.095 118.756 187.095C119.747 187.095 120.677 187.239 121.547 187.527C122.422 187.814 123.212 188.236 123.915 188.792C124.618 189.342 125.206 190.013 125.679 190.806C126.152 191.592 126.478 192.49 126.657 193.5ZM130.193 207V192.273H132.379V194.497H132.532C132.801 193.768 133.286 193.177 133.989 192.723C134.693 192.27 135.485 192.043 136.367 192.043C136.534 192.043 136.741 192.046 136.991 192.052C137.24 192.059 137.428 192.068 137.556 192.081V194.382C137.48 194.363 137.304 194.334 137.029 194.296C136.76 194.251 136.476 194.229 136.176 194.229C135.46 194.229 134.82 194.379 134.258 194.679C133.702 194.973 133.261 195.382 132.935 195.907C132.615 196.424 132.455 197.016 132.455 197.68V207H130.193ZM145.965 207.307C144.546 207.307 143.322 206.994 142.293 206.367C141.27 205.734 140.481 204.852 139.924 203.721C139.375 202.583 139.1 201.26 139.1 199.751C139.1 198.243 139.375 196.913 139.924 195.763C140.481 194.606 141.254 193.705 142.245 193.059C143.242 192.407 144.405 192.081 145.735 192.081C146.502 192.081 147.259 192.209 148.007 192.464C148.755 192.72 149.436 193.136 150.049 193.711C150.663 194.28 151.152 195.034 151.516 195.974C151.881 196.913 152.063 198.07 152.063 199.445V200.403H140.711V198.447H149.762C149.762 197.616 149.596 196.875 149.263 196.223C148.937 195.571 148.471 195.056 147.863 194.679C147.263 194.302 146.553 194.114 145.735 194.114C144.834 194.114 144.054 194.337 143.395 194.785C142.743 195.226 142.242 195.801 141.89 196.511C141.538 197.22 141.363 197.981 141.363 198.793V200.097C141.363 201.209 141.554 202.152 141.938 202.925C142.328 203.692 142.868 204.277 143.558 204.68C144.249 205.076 145.051 205.274 145.965 205.274C146.559 205.274 147.096 205.191 147.576 205.025C148.062 204.852 148.48 204.597 148.832 204.258C149.183 203.913 149.455 203.484 149.647 202.973L151.833 203.587C151.603 204.328 151.216 204.98 150.673 205.543C150.129 206.099 149.458 206.533 148.659 206.847C147.86 207.153 146.962 207.307 145.965 207.307ZM159.839 207.345C158.906 207.345 158.059 207.169 157.298 206.818C156.537 206.46 155.933 205.945 155.486 205.274C155.038 204.597 154.815 203.778 154.815 202.82C154.815 201.976 154.981 201.292 155.313 200.768C155.646 200.237 156.09 199.822 156.646 199.521C157.202 199.221 157.816 198.997 158.487 198.85C159.165 198.697 159.845 198.575 160.529 198.486C161.424 198.371 162.15 198.284 162.706 198.227C163.268 198.163 163.677 198.058 163.933 197.911C164.195 197.763 164.326 197.508 164.326 197.143V197.067C164.326 196.121 164.067 195.386 163.549 194.862C163.038 194.337 162.261 194.075 161.22 194.075C160.139 194.075 159.292 194.312 158.679 194.785C158.065 195.258 157.634 195.763 157.384 196.3L155.237 195.533C155.62 194.638 156.132 193.941 156.771 193.442C157.416 192.937 158.119 192.586 158.88 192.388C159.647 192.183 160.401 192.081 161.143 192.081C161.616 192.081 162.159 192.138 162.773 192.254C163.393 192.362 163.991 192.589 164.566 192.934C165.148 193.279 165.63 193.8 166.014 194.497C166.397 195.194 166.589 196.127 166.589 197.297V207H164.326V205.006H164.211C164.058 205.325 163.802 205.667 163.444 206.032C163.086 206.396 162.61 206.706 162.015 206.962C161.421 207.217 160.695 207.345 159.839 207.345ZM160.184 205.312C161.079 205.312 161.833 205.137 162.447 204.785C163.067 204.434 163.534 203.98 163.847 203.424C164.166 202.868 164.326 202.283 164.326 201.669V199.598C164.23 199.713 164.019 199.819 163.693 199.914C163.374 200.004 163.003 200.084 162.581 200.154C162.166 200.218 161.76 200.276 161.363 200.327C160.974 200.371 160.657 200.41 160.414 200.442C159.826 200.518 159.276 200.643 158.765 200.816C158.26 200.982 157.851 201.234 157.538 201.573C157.231 201.906 157.078 202.359 157.078 202.935C157.078 203.721 157.368 204.315 157.95 204.718C158.538 205.114 159.283 205.312 160.184 205.312ZM177.124 192.273V194.19H169.492V192.273H177.124ZM171.716 188.744H173.979V202.781C173.979 203.42 174.072 203.9 174.257 204.219C174.449 204.533 174.692 204.744 174.986 204.852C175.286 204.955 175.602 205.006 175.935 205.006C176.184 205.006 176.389 204.993 176.549 204.967C176.708 204.935 176.836 204.91 176.932 204.891L177.392 206.923C177.239 206.981 177.025 207.038 176.75 207.096C176.475 207.16 176.127 207.192 175.705 207.192C175.066 207.192 174.439 207.054 173.826 206.779C173.218 206.505 172.713 206.086 172.311 205.523C171.914 204.961 171.716 204.251 171.716 203.395V188.744ZM186.544 207.307C185.125 207.307 183.901 206.994 182.872 206.367C181.849 205.734 181.06 204.852 180.504 203.721C179.954 202.583 179.679 201.26 179.679 199.751C179.679 198.243 179.954 196.913 180.504 195.763C181.06 194.606 181.833 193.705 182.824 193.059C183.821 192.407 184.984 192.081 186.314 192.081C187.081 192.081 187.838 192.209 188.586 192.464C189.334 192.72 190.015 193.136 190.629 193.711C191.242 194.28 191.731 195.034 192.096 195.974C192.46 196.913 192.642 198.07 192.642 199.445V200.403H181.29V198.447H190.341C190.341 197.616 190.175 196.875 189.842 196.223C189.516 195.571 189.05 195.056 188.443 194.679C187.842 194.302 187.132 194.114 186.314 194.114C185.413 194.114 184.633 194.337 183.974 194.785C183.322 195.226 182.821 195.801 182.469 196.511C182.118 197.22 181.942 197.981 181.942 198.793V200.097C181.942 201.209 182.134 202.152 182.517 202.925C182.907 203.692 183.447 204.277 184.137 204.68C184.828 205.076 185.63 205.274 186.544 205.274C187.139 205.274 187.675 205.191 188.155 205.025C188.641 204.852 189.059 204.597 189.411 204.258C189.762 203.913 190.034 203.484 190.226 202.973L192.412 203.587C192.182 204.328 191.795 204.98 191.252 205.543C190.708 206.099 190.037 206.533 189.238 206.847C188.439 207.153 187.541 207.307 186.544 207.307ZM217.408 193.5C217.197 192.854 216.919 192.276 216.574 191.765C216.235 191.247 215.829 190.806 215.356 190.441C214.89 190.077 214.359 189.799 213.765 189.607C213.17 189.415 212.518 189.32 211.809 189.32C210.645 189.32 209.587 189.62 208.635 190.221C207.683 190.822 206.925 191.707 206.363 192.877C205.8 194.047 205.519 195.482 205.519 197.182C205.519 198.882 205.803 200.317 206.372 201.487C206.941 202.657 207.711 203.542 208.683 204.143C209.655 204.744 210.748 205.044 211.962 205.044C213.087 205.044 214.078 204.804 214.934 204.325C215.797 203.839 216.468 203.155 216.948 202.273C217.434 201.385 217.677 200.339 217.677 199.138L218.405 199.291H212.499V197.182H219.978V199.291C219.978 200.908 219.633 202.315 218.942 203.51C218.258 204.705 217.312 205.632 216.104 206.29C214.902 206.942 213.522 207.268 211.962 207.268C210.223 207.268 208.696 206.859 207.379 206.041C206.069 205.223 205.046 204.06 204.311 202.551C203.582 201.043 203.218 199.253 203.218 197.182C203.218 195.629 203.425 194.232 203.841 192.992C204.263 191.745 204.857 190.684 205.624 189.809C206.391 188.933 207.299 188.262 208.347 187.795C209.396 187.328 210.549 187.095 211.809 187.095C212.844 187.095 213.809 187.252 214.704 187.565C215.606 187.872 216.408 188.31 217.111 188.879C217.82 189.441 218.412 190.115 218.885 190.902C219.358 191.681 219.684 192.548 219.863 193.5H217.408ZM223.743 207V192.273H225.929V194.497H226.083C226.351 193.768 226.837 193.177 227.54 192.723C228.243 192.27 229.036 192.043 229.918 192.043C230.084 192.043 230.292 192.046 230.541 192.052C230.791 192.059 230.979 192.068 231.107 192.081V194.382C231.03 194.363 230.855 194.334 230.58 194.296C230.311 194.251 230.027 194.229 229.726 194.229C229.01 194.229 228.371 194.379 227.809 194.679C227.253 194.973 226.812 195.382 226.486 195.907C226.166 196.424 226.006 197.016 226.006 197.68V207H223.743ZM239.324 207.307C237.994 207.307 236.828 206.99 235.824 206.358C234.827 205.725 234.047 204.839 233.485 203.702C232.929 202.564 232.651 201.234 232.651 199.713C232.651 198.179 232.929 196.84 233.485 195.696C234.047 194.551 234.827 193.663 235.824 193.03C236.828 192.397 237.994 192.081 239.324 192.081C240.654 192.081 241.817 192.397 242.814 193.03C243.818 193.663 244.597 194.551 245.154 195.696C245.716 196.84 245.997 198.179 245.997 199.713C245.997 201.234 245.716 202.564 245.154 203.702C244.597 204.839 243.818 205.725 242.814 206.358C241.817 206.99 240.654 207.307 239.324 207.307ZM239.324 205.274C240.334 205.274 241.165 205.015 241.817 204.498C242.469 203.98 242.951 203.299 243.265 202.455C243.578 201.612 243.735 200.697 243.735 199.713C243.735 198.729 243.578 197.811 243.265 196.961C242.951 196.111 242.469 195.424 241.817 194.9C241.165 194.376 240.334 194.114 239.324 194.114C238.314 194.114 237.483 194.376 236.831 194.9C236.179 195.424 235.697 196.111 235.383 196.961C235.07 197.811 234.913 198.729 234.913 199.713C234.913 200.697 235.07 201.612 235.383 202.455C235.697 203.299 236.179 203.98 236.831 204.498C237.483 205.015 238.314 205.274 239.324 205.274ZM258.733 200.979V192.273H260.995V207H258.733V204.507H258.579C258.234 205.255 257.697 205.891 256.968 206.415C256.24 206.933 255.319 207.192 254.207 207.192C253.287 207.192 252.468 206.99 251.753 206.588C251.037 206.179 250.474 205.565 250.065 204.747C249.656 203.922 249.451 202.884 249.451 201.631V192.273H251.714V201.477C251.714 202.551 252.015 203.408 252.615 204.047C253.223 204.686 253.996 205.006 254.936 205.006C255.498 205.006 256.07 204.862 256.652 204.574C257.24 204.287 257.732 203.846 258.129 203.251C258.531 202.657 258.733 201.899 258.733 200.979ZM265.14 212.523V192.273H267.326V194.612H267.594C267.761 194.357 267.991 194.031 268.285 193.634C268.585 193.232 269.013 192.874 269.57 192.56C270.132 192.241 270.893 192.081 271.852 192.081C273.092 192.081 274.185 192.391 275.131 193.011C276.077 193.631 276.815 194.51 277.345 195.648C277.876 196.786 278.141 198.128 278.141 199.675C278.141 201.234 277.876 202.586 277.345 203.73C276.815 204.868 276.08 205.75 275.14 206.377C274.201 206.997 273.117 207.307 271.89 207.307C270.944 207.307 270.186 207.15 269.617 206.837C269.049 206.517 268.611 206.156 268.304 205.754C267.997 205.344 267.761 205.006 267.594 204.737H267.403V212.523H265.14ZM267.364 199.636C267.364 200.749 267.527 201.73 267.853 202.58C268.179 203.424 268.655 204.085 269.282 204.565C269.908 205.038 270.675 205.274 271.583 205.274C272.529 205.274 273.318 205.025 273.951 204.526C274.591 204.021 275.07 203.344 275.39 202.494C275.716 201.637 275.879 200.685 275.879 199.636C275.879 198.601 275.719 197.668 275.399 196.837C275.086 195.999 274.61 195.338 273.97 194.852C273.338 194.36 272.542 194.114 271.583 194.114C270.663 194.114 269.889 194.347 269.263 194.814C268.636 195.274 268.163 195.919 267.844 196.75C267.524 197.575 267.364 198.537 267.364 199.636Z" fill="black"/>
</g>
<defs>
<filter id="filter0_d_53_2" x="0" y="0" width="389" height="292" filterUnits="userSpaceOnUse" color-interpolation-filters="sRGB">
<feFlood flood-opacity="0" result="BackgroundImageFix"/>
<feColorMatrix in="SourceAlpha" type="matrix" values="0 0 0 0 0 0 0 0 0 0 0 0 0 0 0 0 0 0 127 0" result="hardAlpha"/>
<feOffset dy="4"/>
<feGaussianBlur stdDeviation="2"/>
<feComposite in2="hardAlpha" operator="out"/>
<feColorMatrix type="matrix" values="0 0 0 0 0 0 0 0 0 0 0 0 0 0 0 0 0 0 0.25 0"/>
<feBlend mode="normal" in2="BackgroundImageFix" result="effect1_dropShadow_53_2"/>
<feBlend mode="normal" in="SourceGraphic" in2="effect1_dropShadow_53_2" result="shape"/>
</filter>
</defs>
</svg>
