<svg width="46" height="46" viewBox="0 0 46 46" fill="none" xmlns="http://www.w3.org/2000/svg">
<path d="M25.0329 4.31253C23.9102 3.18977 22.0898 3.18977 20.9671 4.31253L1.85853 23.4211C1.29716 23.9824 1.29716 24.8926 1.85853 25.454C2.41991 26.0154 3.33009 26.0154 3.89147 25.454L23 6.34546L42.1085 25.454C42.6699 26.0154 43.5801 26.0154 44.1415 25.454C44.7028 24.8926 44.7028 23.9824 44.1415 23.4211L37.375 16.6546V7.18753C37.375 6.39362 36.7314 5.75003 35.9375 5.75003H33.0625C32.2686 5.75003 31.625 6.39362 31.625 7.18753V10.9046L25.0329 4.31253Z" fill="white"/>
<path d="M23 9.4671L40.25 26.7171V38.8125C40.25 41.1943 38.3192 43.125 35.9375 43.125H10.0625C7.68077 43.125 5.75 41.1943 5.75 38.8125V26.7171L23 9.4671Z" fill="white"/>
</svg>
