<svg width="46" height="46" viewBox="0 0 46 46" fill="none" xmlns="http://www.w3.org/2000/svg">
<path d="M20.125 40.25C20.125 40.25 17.25 40.25 17.25 37.375C17.25 34.5 20.125 25.875 31.625 25.875C43.125 25.875 46 34.5 46 37.375C46 40.25 43.125 40.25 43.125 40.25H20.125Z" fill="black"/>
<path d="M31.625 23C36.3885 23 40.25 19.1385 40.25 14.375C40.25 9.61154 36.3885 5.75 31.625 5.75C26.8615 5.75 23 9.61154 23 14.375C23 19.1385 26.8615 23 31.625 23Z" fill="black"/>
<path d="M14.997 40.25C14.5922 39.4333 14.375 38.465 14.375 37.375C14.375 33.4781 16.3273 29.4703 19.9408 26.6799C18.36 26.1743 16.5172 25.875 14.375 25.875C2.875 25.875 0 34.5 0 37.375C0 40.25 2.875 40.25 2.875 40.25H14.997Z" fill="black"/>
<path d="M12.9375 23C16.907 23 20.125 19.782 20.125 15.8125C20.125 11.843 16.907 8.625 12.9375 8.625C8.96795 8.625 5.75 11.843 5.75 15.8125C5.75 19.782 8.96795 23 12.9375 23Z" fill="black"/>
</svg>
