<svg width="166" height="165" viewBox="0 0 166 165" fill="none" xmlns="http://www.w3.org/2000/svg">
<path d="M94 90C94 96.6274 88.6274 102 82 102C75.3726 102 70 96.6274 70 90C70 83.3726 75.3726 78 82 78C88.6274 78 94 83.3726 94 90Z" fill="#D9D9D9"/>
<path d="M83.1928 62.307C63.8636 62.1364 47.8776 97.8772 48.053 77.9967C48.2284 58.1163 64.04 42.1382 83.3692 42.3088C102.698 42.4793 118.226 58.7339 118.05 78.6143C117.875 98.4948 102.522 62.4775 83.1928 62.307Z" fill="#D9D9D9"/>
<path d="M62.0241 110.598V109.273H68.9872V110.598H66.2898V118H64.7216V110.598H62.0241ZM71.2543 118.132C70.8395 118.132 70.4659 118.058 70.1335 117.911C69.804 117.76 69.5426 117.538 69.3494 117.246C69.1591 116.953 69.0639 116.592 69.0639 116.163C69.0639 115.794 69.1321 115.489 69.2685 115.247C69.4048 115.006 69.5909 114.812 69.8267 114.668C70.0625 114.523 70.3281 114.413 70.6236 114.339C70.9219 114.263 71.2301 114.207 71.5483 114.173C71.9318 114.134 72.2429 114.098 72.4815 114.067C72.7202 114.033 72.8935 113.982 73.0014 113.913C73.1122 113.842 73.1676 113.733 73.1676 113.585V113.56C73.1676 113.239 73.0724 112.99 72.8821 112.814C72.6918 112.638 72.4176 112.55 72.0597 112.55C71.6818 112.55 71.3821 112.632 71.1605 112.797C70.9418 112.962 70.794 113.156 70.7173 113.381L69.277 113.176C69.3906 112.778 69.5781 112.446 69.8395 112.179C70.1009 111.909 70.4205 111.707 70.7983 111.574C71.1761 111.438 71.5938 111.369 72.0511 111.369C72.3665 111.369 72.6804 111.406 72.9929 111.48C73.3054 111.554 73.5909 111.676 73.8494 111.847C74.108 112.014 74.3153 112.243 74.4716 112.533C74.6307 112.822 74.7102 113.185 74.7102 113.619V118H73.2273V117.101H73.1761C73.0824 117.283 72.9503 117.453 72.7798 117.612C72.6122 117.768 72.4006 117.895 72.1449 117.991C71.892 118.085 71.5952 118.132 71.2543 118.132ZM71.6548 116.999C71.9645 116.999 72.233 116.937 72.4602 116.815C72.6875 116.69 72.8622 116.526 72.9844 116.321C73.1094 116.116 73.1719 115.893 73.1719 115.652V114.881C73.1236 114.92 73.0412 114.957 72.9247 114.991C72.8111 115.026 72.6832 115.055 72.5412 115.081C72.3991 115.107 72.2585 115.129 72.1193 115.149C71.9801 115.169 71.8594 115.186 71.7571 115.2C71.527 115.232 71.321 115.283 71.1392 115.354C70.9574 115.425 70.8139 115.524 70.7088 115.652C70.6037 115.777 70.5511 115.939 70.5511 116.138C70.5511 116.422 70.6548 116.636 70.8622 116.781C71.0696 116.926 71.3338 116.999 71.6548 116.999ZM81.4347 113.185L80.0284 113.338C79.9886 113.196 79.919 113.062 79.8196 112.938C79.723 112.812 79.5923 112.712 79.4276 112.635C79.2628 112.558 79.0611 112.52 78.8224 112.52C78.5014 112.52 78.2315 112.589 78.0128 112.729C77.7969 112.868 77.6903 113.048 77.6932 113.27C77.6903 113.46 77.7599 113.615 77.902 113.734C78.0469 113.854 78.2855 113.952 78.6179 114.028L79.7344 114.267C80.3537 114.401 80.8139 114.612 81.1151 114.902C81.419 115.192 81.5724 115.571 81.5753 116.04C81.5724 116.452 81.4517 116.815 81.2131 117.131C80.9773 117.443 80.6491 117.687 80.2287 117.864C79.8082 118.04 79.3253 118.128 78.7798 118.128C77.9787 118.128 77.3338 117.96 76.8452 117.625C76.3565 117.287 76.0653 116.817 75.9716 116.214L77.4759 116.07C77.544 116.365 77.6889 116.588 77.9105 116.739C78.1321 116.889 78.4205 116.964 78.7756 116.964C79.142 116.964 79.4361 116.889 79.6577 116.739C79.8821 116.588 79.9943 116.402 79.9943 116.18C79.9943 115.993 79.9219 115.838 79.777 115.716C79.6349 115.594 79.4134 115.5 79.1122 115.435L77.9957 115.2C77.3679 115.07 76.9034 114.849 76.6023 114.54C76.3011 114.227 76.152 113.832 76.1548 113.355C76.152 112.952 76.2614 112.602 76.483 112.307C76.7074 112.009 77.0185 111.778 77.4162 111.616C77.8168 111.452 78.2784 111.369 78.8011 111.369C79.5682 111.369 80.1719 111.533 80.6122 111.859C81.0554 112.186 81.3295 112.628 81.4347 113.185ZM84.2536 115.946L84.2493 114.084H84.4964L86.8487 111.455H88.6513L85.7578 114.676H85.4382L84.2536 115.946ZM82.8473 118V109.273H84.3899V118H82.8473ZM86.9553 118L84.8246 115.021L85.8643 113.935L88.8004 118H86.9553ZM89.6793 118V111.455H91.2219V118H89.6793ZM90.4549 110.526C90.2106 110.526 90.0004 110.445 89.8242 110.283C89.6481 110.118 89.56 109.92 89.56 109.69C89.56 109.457 89.6481 109.26 89.8242 109.098C90.0004 108.933 90.2106 108.851 90.4549 108.851C90.7021 108.851 90.9123 108.933 91.0856 109.098C91.2617 109.26 91.3498 109.457 91.3498 109.69C91.3498 109.92 91.2617 110.118 91.0856 110.283C90.9123 110.445 90.7021 110.526 90.4549 110.526ZM96.1236 111.455V112.648H92.2543V111.455H96.1236ZM93.2216 118V110.837C93.2216 110.396 93.3125 110.03 93.4943 109.737C93.679 109.445 93.9261 109.226 94.2358 109.081C94.5455 108.936 94.8892 108.864 95.267 108.864C95.5341 108.864 95.7713 108.885 95.9787 108.928C96.1861 108.97 96.3395 109.009 96.4389 109.043L96.1321 110.236C96.0668 110.216 95.9844 110.196 95.8849 110.176C95.7855 110.153 95.6747 110.142 95.5526 110.142C95.2656 110.142 95.0625 110.212 94.9432 110.351C94.8267 110.487 94.7685 110.683 94.7685 110.939V118H93.2216ZM98.2905 120.455C98.0803 120.455 97.8857 120.438 97.7067 120.403C97.5305 120.372 97.3899 120.335 97.2848 120.293L97.6428 119.091C97.8672 119.156 98.0675 119.188 98.2436 119.185C98.4197 119.182 98.5746 119.126 98.7081 119.018C98.8445 118.913 98.9595 118.737 99.0533 118.49L99.1854 118.136L96.8118 111.455H98.4482L99.9567 116.398H100.025L101.538 111.455H103.178L100.558 118.793C100.435 119.139 100.273 119.436 100.072 119.683C99.87 119.933 99.6229 120.124 99.3303 120.254C99.0405 120.388 98.6939 120.455 98.2905 120.455Z" fill="white"/>
</svg>
