<svg width="45" height="46" viewBox="0 0 45 46" fill="none" xmlns="http://www.w3.org/2000/svg">
<path d="M19.8375 36.8H24.2458V32.2H19.8375V36.8ZM22.0417 0C9.87467 0 0 10.304 0 23C0 35.696 9.87467 46 22.0417 46C34.2087 46 44.0833 35.696 44.0833 23C44.0833 10.304 34.2087 0 22.0417 0ZM22.0417 41.4C12.3213 41.4 4.40833 33.143 4.40833 23C4.40833 12.857 12.3213 4.6 22.0417 4.6C31.762 4.6 39.675 12.857 39.675 23C39.675 33.143 31.762 41.4 22.0417 41.4ZM22.0417 9.2C17.1705 9.2 13.225 13.317 13.225 18.4H17.6333C17.6333 15.87 19.6171 13.8 22.0417 13.8C24.4662 13.8 26.45 15.87 26.45 18.4C26.45 23 19.8375 22.425 19.8375 29.9H24.2458C24.2458 24.725 30.8583 24.15 30.8583 18.4C30.8583 13.317 26.9129 9.2 22.0417 9.2Z" fill="white"/>
</svg>
